Coordinates
version=1
nRows=10
nColumns=22
inDegrees=yes

Units are S.I. units (second, meters, Newtons, ...)
If the header above contains a line with 'inDegrees', this indicates whether rotational values are in degrees (yes) or radians (no).

endheader
time	pelvis_tilt	pelvis_list	pelvis_rotation	pelvis_tx	pelvis_ty	pelvis_tz	hip_flexion_r	hip_adduction_r	hip_rotation_r	knee_angle_r	ankle_angle_r	subtalar_angle_r	hip_flexion_l	hip_adduction_l	hip_rotation_l	knee_angle_l	ankle_angle_l	subtalar_angle_l	lumbar_extension	lumbar_bending	lumbar_rotation
      0.01000000	     -3.55318110	     -7.35436307	      5.90984794	     -1.05310649	      0.97834103	      0.03330911	      7.93642833	      7.61128066	     -7.52547275	    -15.20133491	      9.46018678	      0.82531452	      5.67095948	     -6.73613811	      7.78435738	     -9.97546303	     10.57203531	     -2.66726275	      3.21922389	      6.59015129	     -7.22008980
      0.02000000	     -3.55535225	     -7.35168939	      5.89065823	     -1.05310888	      0.97834489	      0.03327937	      7.94235535	      7.60526758	     -7.52380239	    -15.20936226	      9.47148773	      0.83396511	      5.64808087	     -6.73507217	      7.75730129	     -9.93833381	     10.56057321	     -2.67436195	      3.23368797	      6.58916610	     -7.27714105
      0.03000000	     -3.55968133	     -7.35058709	      5.86379888	     -1.05310695	      0.97834651	      0.03324971	      7.94866374	      7.60190908	     -7.50782254	    -15.21379395	      9.48125892	      0.83944437	      5.62390910	     -6.73590243	      7.72935007	     -9.89833271	     10.54967507	     -2.68125991	      3.25213002	      6.58994561	     -7.32659598
      0.04000000	     -3.56385469	     -7.35088100	      5.83285812	     -1.05307931	      0.97835001	      0.03323006	      7.95393324	      7.60236956	     -7.47480607	    -15.22112841	      9.49112111	      0.84372784	      5.59475727	     -6.73989282	      7.69364218	     -9.85384444	     10.53602549	     -2.69040421	      3.27466528	      6.58880413	     -7.36950857
      0.05000000	     -3.56753640	     -7.35204325	      5.79498022	     -1.05307071	      0.97834974	      0.03319409	      7.96099452	      7.60216027	     -7.43936757	    -15.22882229	      9.49745671	      0.84624089	      5.56798299	     -6.74271799	      7.65817109	     -9.81558040	     10.52836282	     -2.69868398	      3.29044018	      6.59430361	     -7.40891112
      0.06000000	     -3.56653480	     -7.34982842	      5.72385982	     -1.05302192	      0.97836552	      0.03320477	      7.95401815	      7.60753279	     -7.34663678	    -15.23086086	      9.50799252	      0.85942938	      5.52154956	     -6.74712979	      7.58377005	     -9.76706685	     10.50230845	     -2.72869671	      3.30176417	      6.59608212	     -7.38487615
      0.07000000	     -3.56317307	     -7.35131135	      5.69592197	     -1.05300860	      0.97836784	      0.03315718	      7.95816559	      7.60674121	     -7.32546020	    -15.24941506	      9.50361103	      0.86442972	      5.50019925	     -6.74842477	      7.55731076	     -9.74916156	     10.50966888	     -2.73588975	      3.30983792	      6.59902631	     -7.42742569
      0.08000000	     -3.56026740	     -7.35399363	      5.63485692	     -1.05297663	      0.97837455	      0.03315351	      7.95363367	      7.61368634	     -7.25988547	    -15.25625185	      9.50571830	      0.89245116	      5.46874932	     -6.75538130	      7.49087669	     -9.72482193	     10.50606056	     -2.76030550	      3.31482790	      6.60411468	     -7.41904615
      0.09000000	     -3.55708487	     -7.35526726	      5.60492032	     -1.05298497	      0.97837348	      0.03308403	      7.95666418	      7.61045663	     -7.24540732	    -15.27124383	      9.49894961	      0.89850296	      5.45624940	     -6.75253900	      7.47873272	     -9.72117713	     10.51042085	     -2.76423764	      3.31741578	      6.61020400	     -7.45046363
      0.10000000	     -3.55349211	     -7.35734292	      5.57001017	     -1.05297570	      0.97837466	      0.03303979	      7.95908142	      7.61139327	     -7.21468368	    -15.28998836	      9.48840022	      0.91090128	      5.44245472	     -6.75341798	      7.44813323	     -9.71795201	     10.51688310	     -2.77209379	      3.32302062	      6.61224090	     -7.48081496
